<svg height="512pt" viewBox="-34 0 512 512" width="512pt" xmlns="http://www.w3.org/2000/svg"><path d="m221.703125 0-221.703125 128v256l221.703125 128 221.703125-128v-256zm0 0" fill="#96a0f0"/><path d="m374.6875 168.15625v176.660156l-152.984375 88.320313-152.984375-88.320313v-176.660156l152.984375-88.320312zm0 0" fill="#39689f"/><g fill="#75e1f7"><path d="m221.703125 0v79.832031l152.988281 88.328125 68.714844-40.160156zm0 0"/><path d="m443.40625 384-68.714844-39.1875-152.988281 88.328125v78.859375zm0 0"/><path d="m0 128 68.714844 40.160156v176.652344l-68.714844 39.1875zm0 0"/></g><path d="m374.6875 168.15625v176.660156l-152.984375 88.320313v-353.300781zm0 0" fill="#224370"/></svg>