<?xml version="1.0" encoding="utf-8"?>
<!-- Svg Vector Icons : http://www.onlinewebfonts.com/icon -->
<!DOCTYPE svg PUBLIC "-//W3C//DTD SVG 1.1//EN" "http://www.w3.org/Graphics/SVG/1.1/DTD/svg11.dtd">
<svg version="1.1" xmlns="http://www.w3.org/2000/svg" xmlns:xlink="http://www.w3.org/1999/xlink" x="0px" y="0px" viewBox="0 0 1000 1000" enable-background="new 0 0 1000 1000" xml:space="preserve">
<metadata> Svg Vector Icons : http://www.onlinewebfonts.com/icon </metadata>
<g><path d="M843.6,605.3c21.1-52.1,31.6-107.5,31.6-162.7s-10.5-110.7-31.6-162.7s-52.9-100.9-95-143.1c-42.3-42.3-91-73.9-143.1-95C553.5,20.7,498,10.2,442.8,10.2c-0.2,0-0.4,0-0.6,0c-3.2,0-6.2,0.4-9.1,1.2c-6.8,1.8-12.9,5.8-17.3,10.9c-0.4,0.6-0.8,1-1.2,1.6c-4.2,5.6-7,12.5-7.2,20.1c0.2,2.4,0.4,4.8,0.4,7.2c2.4,13.7,12.5,24.6,25.8,28c2.8,0.6,5.6,1,8.5,1c0.2,0,0.4,0,0.8,0c46.5,0,92.8,8.9,136.5,26.6c43.7,17.7,84.6,44.3,120,79.7c35.4,35.4,62,76.3,79.7,120c17.7,43.7,26.6,90,26.6,136.5s-8.9,92.8-26.6,136.5c-7.5,18.7-16.7,36.6-27.4,54c0.2-7.2,0-14.3-0.4-21.7c-1-15.9-3.8-31.4-7.7-46.3c-0.6-2.4-1.4-4.8-2.2-7.2c-0.4-1-0.6-2.2-1-3.2c-0.8-2.8-1.8-5.4-2.8-8.1c-0.4-1-0.8-2-1.2-3.2c-0.6-1.8-1.4-3.6-2.2-5.4c-0.8-1.8-1.4-3.4-2.2-5.2c-0.6-1.4-1.2-3-2-4.4c-0.6-1.2-1-2.2-1.6-3.4c-0.8-1.8-1.8-3.6-2.6-5.4c-0.6-1.2-1.2-2.2-1.8-3.2c-1-1.8-2-3.6-3-5.4c-0.6-1-1.2-2-1.8-3c-1-1.8-2.2-3.6-3.4-5.4c-0.6-1-1.2-1.8-1.8-2.8c-1.2-2-2.6-3.8-3.8-5.6c-0.8-1.2-1.6-2.4-2.4-3.6c0-0.2-0.2-0.2-0.2-0.4l-0.2-0.2c-1.6-2.2-3.4-4.6-5-6.8c0-0.2-0.2-0.2-0.2-0.4c-1.6-2.2-3.4-4.2-5.2-6.4c-0.2-0.2-0.2-0.2-0.4-0.4c-0.8-0.8-1.4-1.8-2.2-2.6c-1-1.2-2-2.4-3-3.4c0,0,0,0,0-0.2c-6.6-7.4-13.5-14.1-21.1-20.5c0,0,0,0-0.2,0c-2.4-2-4.8-4-7.2-6c-0.4-0.2-0.6-0.4-1-0.8c-2.2-1.8-4.4-3.4-6.6-5c-0.4-0.4-1-0.6-1.4-1c-2.2-1.6-4.2-3-6.4-4.4c-0.6-0.4-1.2-0.8-1.8-1.2c-2-1.4-4.2-2.8-6.4-4c-0.6-0.4-1.2-0.8-2-1.2c-2.2-1.2-4.2-2.6-6.4-3.8c-0.6-0.4-1.2-0.8-2-1c-2.2-1.2-4.4-2.4-6.8-3.6c-0.6-0.4-1.2-0.6-1.8-1c-2.4-1.2-4.8-2.4-7.4-3.4c-0.4-0.2-1-0.4-1.4-0.6c-2.8-1.2-5.8-2.4-8.5-3.6c0,0-0.2,0-0.2-0.2c-15.3-6-31.4-10.5-48.1-13.3c-2-0.4-4-0.6-6.2-1c-0.2,0-0.4,0-0.4,0c-14.9-2-30.4-2.6-46.1-1.6c-7.9,0.6-15.7,1.4-23.4,2.8c-0.8,0.2-1.8,0.2-2.6,0.4c-0.4,0-0.8,0.2-1.4,0.2c-13.9,2.6-27.6,6.6-41.1,11.7c-0.6,0.2-1.2,0.6-1.8,0.8c-0.8,0.4-1.8,0.8-2.6,1.2c-1,0.4-2.2,1-3.2,1.4c-1.4,0.6-2.8,1-4.2,1.6c-6.2,2.2-12.5,4-19.1,5.6c-1.6,0.4-3.2,0.8-4.8,1c-0.4,0-0.8,0.2-1.2,0.2c-1.2,0.2-2.6,0.4-3.8,0.6c-0.8,0.2-1.6,0.2-2.4,0.4c-1,0.2-1.8,0.2-2.8,0.4c-1.2,0.2-2.4,0.4-3.8,0.4c-0.6,0-1,0.2-1.6,0.2c-0.4,0-0.8,0-1.2,0.2c-0.8,0-1.4,0.2-2.2,0.2c-1.2,0.2-2.6,0.2-3.8,0.2c-1.8,0-3.4,0.2-5.2,0.2c-1,0-2.2,0-3.2,0c-1.8,0-3.4,0-5,0c-0.8,0-1.6,0-2.6,0c-2.2,0-4.4-0.2-6.6-0.4c-0.8,0-1.4-0.2-2.2-0.2c-2-0.2-3.8-0.4-5.8-0.6c-0.6,0-1-0.2-1.6-0.2c-1.4-0.2-2.8-0.4-4.2-0.6c-0.2,0-0.4,0-0.6,0c-0.8-0.2-1.6-0.2-2.2-0.4c-0.6-0.2-1.2-0.2-1.8-0.4c-0.8-0.2-1.8-0.4-2.6-0.6c-0.4,0-0.6-0.2-1-0.2c-0.8-0.2-1.6-0.4-2.4-0.6c-0.4,0-0.8-0.2-1.2-0.2c-1-0.2-2-0.6-3-0.8c-0.2,0-0.4,0-0.6-0.2c-2.2-0.6-4.4-1.2-6.6-2c-0.2,0-0.4-0.2-0.6-0.2c-2.2-0.8-4.6-1.4-6.8-2.2h-0.2c-7-2.6-13.5-5.6-20.1-8.9c-0.2,0-0.4-0.2-0.4-0.2c-2-1-3.8-2-5.6-3.2c-0.4-0.2-0.8-0.4-1.2-0.8c-1.6-1-3.2-2-4.8-3c-0.4-0.4-1-0.6-1.4-1c-1.4-1-3-2-4.4-3c-0.6-0.4-1-0.8-1.6-1c-1.4-1-2.8-2.2-4.4-3.2c-0.4-0.4-1-0.6-1.4-1c-1.6-1.2-3-2.4-4.6-3.8c-0.2-0.2-0.6-0.4-0.8-0.6c-3.6-3-7.2-6.4-10.3-9.5c-0.4-0.4-0.6-0.6-0.8-1c-1.4-1.4-2.6-2.8-4-4.2c-0.4-0.6-1-1-1.4-1.6c-1-1.2-2.2-2.4-3.2-3.6c-0.6-0.6-1-1.2-1.6-1.8c-1-1.2-1.8-2.4-2.8-3.6c-0.6-0.6-1-1.4-1.6-2c-0.8-1.2-1.8-2.4-2.6-3.6c-0.4-0.8-1-1.4-1.4-2.2c-0.8-1.2-1.6-2.6-2.6-3.8c-0.4-0.6-0.8-1.4-1.4-2c-1-1.4-1.8-3-2.6-4.6c-0.4-0.6-0.6-1-1-1.6c-1.2-2-2.2-4-3.2-6.2c-0.4-0.8-0.8-1.4-1-2.2c-0.6-1.4-1.4-2.6-2-4c-0.4-1-0.8-2-1.2-3c-0.6-1.2-1-2.4-1.4-3.4c-0.4-1-0.8-2.2-1.2-3.2c-0.4-1-0.8-2.2-1.2-3.2c-0.4-1.2-0.8-2.4-1.2-3.6c-0.4-1-0.6-2-1-3c-0.4-1.2-0.8-2.6-1.2-3.8c-0.2-1-0.6-1.8-0.8-2.8c-0.4-1.4-0.8-2.8-1-4.2c-0.2-0.8-0.4-1.4-0.4-2.2c-1.8-8.1-3-16.5-3.6-25c-4.2-63.2,28.2-120.6,78.9-151.6c8.1-4,16.5-7.7,24.8-11.1c12.7-5.2,21.9-17.7,21.9-32.4c0-9.9-4.2-18.9-10.9-25.2c-0.8-0.8-1.8-1.4-2.6-2.2c-3.4-2.6-7.2-4.6-11.3-6c-3.2-1-6.8-1.6-10.3-1.6c-3.2,0-6.2,0.4-9.1,1.2c-1.4,0.4-2.8,0.8-4,1.4c-0.2,0-0.4,0.2-0.6,0.2s-0.4,0.2-0.6,0.2C227,63.6,178.5,95.2,136.6,137.2c-42.3,42.3-73.9,91-95,143.1C20.6,332.3,10,387.7,10,442.9s10.5,110.7,31.6,162.7s52.9,100.9,95,143.1c42.3,42.3,91,73.9,143.1,95c52.1,21.1,107.5,31.6,162.7,31.6v-0.2c3,0,5.8-0.6,8.5-1.2c14.7-4,25.6-17.5,25.6-33.6c0-9.9-4.2-18.9-10.9-25.2c-0.8-0.8-1.8-1.4-2.6-2.2c-3.4-2.6-7.2-4.6-11.3-6c-3.2-1-6.8-1.6-10.3-1.6c-0.8,0-1.6,0-2.6,0c-45.3-0.4-90.8-9.1-133.3-26.6c-43.7-17.7-84.6-44.3-120-79.7c-35.4-35.4-62-76.3-79.7-120c-17.7-43.7-26.6-90-26.6-136.5s8.9-92.8,26.6-136.5c7.6-18.5,16.7-36.6,27.4-53.8c0,0.2,0,0.4,0,0.6c0,1.2,0,2.4,0,3.4c0,2.8,0,5.6,0,8.5c0,1.2,0,2.4,0.2,3.6c0,1.8,0.2,3.6,0.2,5.4c0.2,4,0.6,7.9,1,11.9c0,0.2,0,0.2,0,0.4c0.2,1.6,0.4,3.4,0.6,5v0.2c0.2,0.8,0.2,1.8,0.4,2.6c0.2,0.8,0.2,1.4,0.4,2.2c0,0.2,0,0.6,0.2,0.8c0.2,1.4,0.4,2.8,0.8,4.2c0,0.6,0.2,1,0.2,1.6c0,0.6,0.2,1,0.4,1.6c0.2,0.8,0.4,1.6,0.4,2.4c0,0,0,0,0,0.2c0.2,0.6,0.2,1,0.4,1.6c0.2,1.4,0.6,2.8,1,4v0.2c0.4,1.8,1,3.8,1.4,5.6c0.2,0.4,0.2,0.8,0.4,1.4v0.2c0,0.2,0.2,0.4,0.2,0.6c0.6,2.4,1.4,4.8,2.2,7.2c0.4,1.2,0.6,2.2,1,3.2c0.8,2.8,1.8,5.4,2.8,8.1c0.4,1,0.8,2,1.2,3.2c0.6,1.8,1.4,3.6,2.2,5.4c0.8,1.8,1.4,3.4,2.2,5.2c0.6,1.4,1.4,3,2,4.4c0.6,1.2,1,2.2,1.6,3.4c0.8,1.8,1.8,3.6,2.6,5.4c0.6,1.2,1.2,2.2,1.8,3.2c1,1.8,2,3.6,3,5.4c0.6,1,1.2,2,1.8,3c1,1.8,2.2,3.6,3.4,5.4c0.6,1,1.2,1.8,1.8,2.8c1.2,2,2.6,3.8,3.8,5.6c0.8,1.2,1.6,2.4,2.4,3.6c0,0.2,0.2,0.2,0.2,0.4l0.2,0.2c1.6,2.2,3.4,4.6,5,6.8c0,0.2,0.2,0.2,0.2,0.4c1.6,2.2,3.4,4.2,5.2,6.4c0.2,0.2,0.2,0.2,0.4,0.4c0.8,0.8,1.6,1.8,2.2,2.6c1,1.2,2,2.2,3,3.4c0,0,0,0,0.2,0.2c6.6,7.4,13.5,14.1,21.1,20.5c2.4,2,4.8,4,7.2,6c0.4,0.2,0.6,0.4,1,0.8c2.2,1.8,4.4,3.4,6.6,5c0.4,0.4,1,0.6,1.4,1c2.2,1.6,4.2,3,6.4,4.4c0.6,0.4,1.2,0.8,1.8,1.2c2,1.4,4.2,2.8,6.4,4c0.6,0.4,1.2,0.8,2,1.2c2.2,1.2,4.2,2.6,6.4,3.8c0.6,0.4,1.2,0.8,2,1c2.2,1.2,4.4,2.4,6.8,3.6c0.6,0.4,1.2,0.6,1.8,1c2.4,1.2,4.8,2.4,7.4,3.4c0.4,0.2,1,0.4,1.4,0.6c2.8,1.2,5.8,2.4,8.5,3.6c0,0,0.2,0,0.2,0.2c15.3,6,31.4,10.5,48.1,13.3c2,0.4,4,0.6,6.2,1c0.2,0,0.4,0,0.4,0c14.9,2,30.4,2.6,46.1,1.6c7.9-0.6,15.7-1.4,23.4-2.8c0.8-0.2,1.8-0.2,2.6-0.4c0.4,0,0.8-0.2,1.4-0.2c13.9-2.6,27.6-6.6,41.1-11.7c0.6-0.2,1.2-0.6,1.8-0.8c0.8-0.4,1.8-0.8,2.6-1.2c1-0.4,2.2-1,3.2-1.4c1.4-0.6,2.8-1,4.2-1.6c6.2-2.2,12.5-4,19.1-5.6c1.6-0.4,3.2-0.8,4.8-1c0.4,0,0.8-0.2,1.2-0.2c1.2-0.2,2.6-0.4,3.8-0.6c0.8-0.2,1.6-0.2,2.4-0.4c1-0.2,1.8-0.2,2.8-0.4c1.2-0.2,2.4-0.4,3.8-0.4c0.6,0,1-0.2,1.6-0.2c0.4,0,0.8,0,1.2-0.2c0.8,0,1.4-0.2,2.2-0.2c1.2,0,2.6-0.2,3.8-0.2c1.8,0,3.4-0.2,5.2-0.2c1,0,2.2,0,3.2,0c1.8,0,3.4,0,5,0c0.8,0,1.6,0,2.6,0c2.2,0,4.4,0.2,6.6,0.4c0.8,0,1.4,0.2,2.2,0.2c2,0.2,3.8,0.4,5.8,0.6c0.6,0,1,0.2,1.6,0.2c1.4,0.2,2.8,0.4,4.2,0.6h0.6c0.8,0.2,1.6,0.2,2.2,0.4c0.6,0.2,1.2,0.2,1.8,0.4c0.8,0.2,1.8,0.4,2.6,0.6c0.4,0,0.6,0.2,1,0.2c0.8,0.2,1.6,0.4,2.4,0.6c0.4,0,0.8,0.2,1.2,0.2c1,0.2,2,0.6,3,0.8c0.2,0,0.4,0,0.6,0.2c2.2,0.6,4.4,1.2,6.6,2c0.2,0,0.4,0.2,0.6,0.2c2.2,0.8,4.6,1.4,6.8,2.2c0,0,0,0,0.2,0c7,2.6,13.5,5.6,20.1,8.9c0.2,0,0.4,0.2,0.4,0.2c2,1,3.8,2,5.6,3.2c0.4,0.2,0.8,0.4,1.2,0.8c1.6,1,3.2,2,4.8,3c0.6,0.4,1,0.6,1.6,1c1.4,1,3,2,4.4,3c0.6,0.4,1,0.8,1.6,1c1.4,1,2.8,2.2,4.4,3.2c0.4,0.4,1,0.6,1.4,1c1.6,1.2,3,2.4,4.6,3.8c0.2,0.2,0.6,0.4,0.8,0.6c3.6,3,7.2,6.4,10.3,9.5c0.4,0.4,0.6,0.6,0.8,1c1.4,1.4,2.6,2.8,3.8,4.2c0.4,0.6,1,1,1.4,1.6c1,1.2,2.2,2.4,3.2,3.6c0.6,0.6,1,1.2,1.6,1.8c1,1.2,1.8,2.4,2.8,3.6c0.6,0.6,1,1.4,1.6,2c0.8,1.2,1.8,2.4,2.6,3.6c0.4,0.8,1,1.4,1.4,2.2c0.8,1.2,1.8,2.6,2.6,3.8c0.4,0.6,0.8,1.4,1.4,2c1,1.4,1.8,3,2.6,4.4c0.2,0.6,0.6,1,1,1.6c1.2,2,2.2,4,3.2,6.2c0.4,0.8,0.8,1.4,1,2.2c0.6,1.4,1.4,2.6,2,4c0.4,1,0.8,2,1.2,3c0.6,1.2,1,2.4,1.4,3.4c0.4,1,0.8,2.2,1.2,3.2c0.4,1,0.8,2.2,1.2,3.2c0.4,1.2,0.8,2.4,1.2,3.6c0.4,1,0.6,2,1,3c0.4,1.2,0.8,2.6,1.2,3.8c0.2,1,0.6,1.8,0.8,2.8c0.4,1.4,0.8,2.8,1,4.2c0.2,0.8,0.4,1.4,0.4,2.2c1.8,8.1,3,16.5,3.6,25c4.2,63.2-28.2,120.6-78.9,151.6c-8.1,4-16.5,7.7-24.8,11.1c-5.4,2.2-9.9,5.4-13.5,9.7c-0.4,0.6-0.8,1-1.2,1.6c-4.2,5.6-7,12.5-7.2,20.1c0.2,2.4,0.4,4.8,0.4,7.2c2.4,13.7,12.5,24.6,25.8,28c2.8,0.6,5.6,1,8.5,1c3.2,0,6.4-0.4,9.3-1.2c1.4-0.4,2.8-0.8,4.2-1.4c52.1-21.1,100.9-52.9,143.1-95C790.7,706.2,822.5,657.3,843.6,605.3z"/><path d="M970.9,879.5L857.1,765.6c-25.2-25.2-66.2-25.2-91.4,0c-25.2,25.2-25.2,66.2,0,91.4l113.9,113.9c25.2,25.2,66.2,25.2,91.4,0C996.4,945.7,996.4,904.7,970.9,879.5z"/></g>
</svg>